HIERARCHY
ROOT Hips
{
	OFFSET -3.958830 18.904000 13.208200
	CHANNELS 6 Xposition Yposition Zposition Zrotation Yrotation Xrotation 
	JOINT LHipJoint
	{
		OFFSET 0.000000 0.000000 0.000000
		CHANNELS 3 Zrotation Yrotation Xrotation
		JOINT LeftUpLeg
		{
			OFFSET 1.800000 -1.400000 0.085000
			CHANNELS 3 Zrotation Yrotation Xrotation
			JOINT LeftLeg
			{
				OFFSET 2.215000 -6.000000 0.000000
				CHANNELS 3 Zrotation Yrotation Xrotation
				JOINT LeftFoot
				{
					OFFSET 2.500000 -6.900000 0.000000
					CHANNELS 3 Zrotation Yrotation Xrotation
					JOINT LeftToeBase
					{
						OFFSET 0.200000 -0.500000 1.950000
						CHANNELS 3 Zrotation Yrotation Xrotation
						End Site
						{
							OFFSET 0.000000 0.000000 0.000000
						}
					}
				}
			}
		}
	}
	JOINT RHipJoint
	{
		OFFSET 0.000000 0.000000 0.000000
		CHANNELS 3 Zrotation Yrotation Xrotation
		JOINT RightUpLeg
		{
			OFFSET -1.800000 -1.400000 0.085000
			CHANNELS 3 Zrotation Yrotation Xrotation
			JOINT RightLeg
			{
				OFFSET -2.215000 -6.000000 0.000000
				CHANNELS 3 Zrotation Yrotation Xrotation
				JOINT RightFoot
				{
					OFFSET -2.500000 -6.900000 0.000000
					CHANNELS 3 Zrotation Yrotation Xrotation
					JOINT RightToeBase
					{
						OFFSET -0.200000 -0.500000 1.950000
						CHANNELS 3 Zrotation Yrotation Xrotation
						End Site
						{
							OFFSET 0.000000 0.000000 0.000000
						}
					}
				}
			}
		}
	}
	JOINT LowerBack
	{
		OFFSET 0.000000 0.000000 0.000000
		CHANNELS 3 Zrotation Yrotation Xrotation
		JOINT Spine
		{
			OFFSET -0.087000 1.940000 -0.288900
			CHANNELS 3 Zrotation Yrotation Xrotation
			JOINT Spine1
			{
				OFFSET 0.000000 1.950000 0.060000
				CHANNELS 3 Zrotation Yrotation Xrotation
				JOINT Neck
				{
					OFFSET 0.000000 0.000000 0.000000
					CHANNELS 3 Zrotation Yrotation Xrotation
					JOINT Neck1
					{
						OFFSET 0.000000 1.600000 0.340000
						CHANNELS 3 Zrotation Yrotation Xrotation
						JOINT Head
						{
							OFFSET 0.000000 1.667000 -0.240000
							CHANNELS 3 Zrotation Yrotation Xrotation
							End Site
							{
								OFFSET 0.000000 0.000000 0.000000
							}
						}
					}
				}
				JOINT LeftShoulder
				{
					OFFSET 0.000000 0.000000 0.000000
					CHANNELS 3 Zrotation Yrotation Xrotation
					JOINT LeftArm
					{
						OFFSET 2.700000 1.550000 -0.730000
						CHANNELS 3 Zrotation Yrotation Xrotation
						JOINT LeftForeArm
						{
							OFFSET 5.450000 0.000000 0.000000
							CHANNELS 3 Zrotation Yrotation Xrotation
							JOINT LeftHand
							{
								OFFSET 3.450000 0.000000 0.000000
								CHANNELS 3 Zrotation Yrotation Xrotation
								JOINT LeftHandIndex1
								{
									OFFSET 0.750000 0.000000 0.000000
									CHANNELS 3 Zrotation Yrotation Xrotation
									End Site
									{
										OFFSET 0.000000 0.000000 0.000000
									}
								}
							}
						}
					}
				}
				JOINT RightShoulder
				{
					OFFSET 0.000000 0.000000 0.000000
					CHANNELS 3 Zrotation Yrotation Xrotation
					JOINT RightArm
					{
						OFFSET -2.700000 1.550000 -0.730000
						CHANNELS 3 Zrotation Yrotation Xrotation
						JOINT RightForeArm
						{
							OFFSET -5.450000 0.000000 0.000000
							CHANNELS 3 Zrotation Yrotation Xrotation
							JOINT RightHand
							{
								OFFSET -3.450000 0.000000 0.000000
								CHANNELS 3 Zrotation Yrotation Xrotation
								JOINT RightHandIndex1
								{
									OFFSET -0.750000 0.000000 0.000000
									CHANNELS 3 Zrotation Yrotation Xrotation
									End Site
									{
										OFFSET 0.000000 0.000000 0.000000
									}
								}
							}
						}
					}
				}
			}
		}
	}
}
MOTION
Frames: 9
Frame Time: 0.016667
2.628460 17.032100 -1.459400 1.992187 17.638704 6.136991 -15.452122 13.624861 2.755525 2.654394 -0.327987 0.467099 -8.741290 6.123071 6.490092 -0.510140 5.412761 3.210160 0.366100 -0.031270 -0.170130 18.357881 -8.823929 3.200365 12.519589 4.440908 -30.866128 2.725372 -2.939654 13.998680 0.330117 -1.954019 4.070428 0.283720 0.952730 0.070040 -3.473725 -5.279205 -7.000707 13.592710 -14.363088 7.616682 -21.993380 -10.576222 13.085719 4.403204 -8.387044 -12.309443 -16.513285 3.932669 16.799838 7.545630 -6.634780 -3.897790 -13.645611 -8.955445 2.064386 -48.584487 -30.564825 2.732944 54.866000 -72.862147 -41.942054 -3.678452 1.884411 0.304490 0.477180 -0.646180 0.471080 5.001362 7.995299 11.232811 40.490826 -20.557015 -10.632589 58.348513 44.576735 16.206566 1.185119 -2.198242 -0.506040 0.599010 0.172700 -0.082270 
2.649420 17.027230 -1.317940 2.218486 14.744338 5.084163 -15.481227 13.673982 2.735158 2.583207 -0.297249 1.809074 -8.927534 6.603740 8.290505 -0.468295 5.694053 3.128252 0.335470 -0.065290 -0.191290 18.344982 -8.799404 3.171160 13.312654 4.200107 -26.590880 1.673024 -2.314256 10.608590 0.347703 -1.943226 4.115082 0.283370 1.006260 0.066450 -3.370938 -5.391767 -6.940543 12.784505 -13.949509 6.243739 -21.387387 -10.339390 13.360827 4.078049 -8.696142 -12.168097 -17.586462 5.895513 17.472420 7.245030 -5.256190 -2.165240 -13.879638 -8.502759 1.843728 -47.985141 -30.108432 2.897569 48.617634 -68.213641 -34.584727 -3.781883 2.186356 0.285700 0.524290 -0.682810 0.471400 5.799033 8.033828 11.349861 36.185044 -19.513996 -7.886878 65.959527 47.469614 21.335803 1.197196 -2.265531 -0.538150 0.618680 0.193430 -0.086300 
2.660110 17.038250 -1.185460 2.530259 11.478832 3.588846 -15.477676 13.665677 2.726906 2.639006 -0.455714 3.085892 -9.778338 7.298284 10.889748 -0.363488 5.983118 2.996936 0.393850 0.019510 -0.135030 18.360194 -8.832635 3.138457 13.869863 3.714451 -22.215766 0.612382 -1.988298 8.418988 0.254224 -2.043805 4.070693 0.309160 0.943560 0.066280 -3.362386 -5.347167 -6.892625 12.035183 -13.761608 5.466379 -21.234852 -10.226823 13.538780 3.653326 -9.138595 -11.914712 -19.275477 8.266992 19.037704 7.761690 -3.650410 -2.568900 -13.691491 -8.050754 1.782809 -47.321857 -29.016765 2.429322 42.609049 -63.222716 -28.071412 -3.779171 2.429700 0.309330 0.477940 -0.615060 0.475900 6.289630 8.112281 10.986562 32.884414 -16.280049 -5.332360 71.663891 48.674697 25.506614 1.294787 -2.282763 -0.502250 0.606270 0.146530 -0.086620 
2.668260 17.066550 -1.056480 2.771179 7.328566 1.866999 -15.440325 13.611280 2.741989 2.674383 -0.773263 4.059390 -11.058032 8.167477 14.034156 -0.287791 6.394528 2.814034 0.440640 0.056190 -0.070580 18.400699 -8.915557 3.105592 13.939112 3.096562 -18.048225 0.223604 -2.044000 7.414207 0.134199 -2.242778 3.985289 0.313270 0.873130 0.067000 -3.442505 -5.174883 -6.868444 11.750664 -13.178089 5.339168 -20.757542 -9.685027 13.344958 3.055813 -9.938947 -11.886598 -22.092835 10.505964 20.781590 8.344110 -2.549290 -3.711780 -13.809825 -7.977564 1.805278 -46.599794 -27.616483 1.732297 36.539010 -58.237962 -22.460726 -3.764489 2.573050 0.391530 0.412480 -0.543840 0.460620 7.502658 8.811844 10.799658 29.911501 -13.629390 -3.737795 76.173345 49.508304 28.972132 1.393953 -2.226102 -0.492150 0.606910 0.129000 -0.114140 
2.672670 17.097410 -0.925700 3.570771 3.298532 0.395416 -15.446752 13.604900 2.832995 2.653075 -1.393586 3.994976 -13.187505 9.397700 17.847886 -0.137316 6.945043 2.599037 0.459400 0.062770 0.000130 18.380234 -8.994595 3.030904 12.989894 2.386113 -14.767906 0.263152 -2.248375 7.283868 0.048255 -2.445743 3.919487 0.293320 0.811050 0.060080 -3.378201 -5.147696 -6.896577 10.309412 -12.262992 5.271587 -19.526060 -8.827400 12.938241 2.738483 -10.158778 -11.956665 -23.637924 12.181543 22.722120 8.040310 -1.108010 -3.530920 -14.199600 -8.214043 1.826125 -45.699159 -26.358595 1.330880 29.932844 -52.953530 -17.052349 -3.767523 2.683166 0.427550 0.375510 -0.495850 0.438010 8.500237 9.682478 10.784585 28.577105 -11.604974 -2.935389 78.970885 50.210312 31.371158 1.495377 -2.176832 -0.477390 0.589210 0.099570 -0.142260 
2.668020 17.133610 -0.816750 4.206669 -0.895618 -1.261183 -15.447194 13.511212 3.011845 4.011265 -2.603184 3.254793 -17.443901 11.504961 21.949171 0.075711 7.849501 2.240500 0.516700 0.107180 0.107300 18.359876 -9.053225 2.948928 12.010368 1.745173 -11.984004 0.267576 -2.534564 7.888183 -0.082904 -2.617056 3.831446 0.284490 0.689540 0.058890 -3.321592 -5.054655 -7.030689 8.888046 -11.066175 6.030781 -18.129507 -7.606604 12.558296 2.577230 -10.148931 -12.257703 -25.094267 13.695697 25.487287 7.694920 0.434550 -4.904330 -14.271965 -8.833921 1.905823 -45.131084 -25.709688 1.232607 24.180677 -46.998788 -12.740518 -3.709236 2.743087 0.527120 0.286930 -0.391690 0.416510 8.901440 10.813455 10.902620 29.202326 -9.793986 -3.176454 79.046843 51.039221 32.119380 1.582309 -2.103977 -0.455730 0.562800 0.050270 -0.187180 
2.653110 17.156410 -0.722350 4.621573 -5.235945 -2.467609 -15.437226 13.252953 3.285875 6.606204 -4.131092 1.508193 -23.475746 14.525619 25.613846 0.394963 9.039358 1.785591 0.574880 0.159820 0.194670 18.360363 -9.079361 2.855734 11.396613 1.290854 -10.125091 0.195197 -2.805202 9.083473 -0.189220 -2.775815 3.746720 0.278490 0.578860 0.084630 -3.317909 -4.773298 -7.207100 8.278680 -9.556331 6.668794 -16.900648 -6.110740 11.937730 2.517719 -10.037313 -12.379817 -25.972845 14.872168 27.971618 7.069300 1.782540 -5.668060 -14.895225 -9.247613 1.652763 -44.319303 -25.313312 1.691572 17.880542 -40.985730 -8.766532 -3.678571 2.815677 0.581160 0.223550 -0.300460 0.401910 9.638032 11.669884 11.132732 29.733835 -8.938333 -3.458686 80.533472 51.553534 33.215269 1.669074 -2.073866 -0.404920 0.504390 0.000760 -0.213480 
2.638590 17.169660 -0.638580 4.628628 -9.026482 -3.662851 -15.402324 12.872367 3.645667 10.320886 -5.625665 -0.695776 -30.049530 18.105196 28.606974 0.740074 10.270494 1.318379 0.638650 0.216770 0.310880 18.396589 -9.066668 2.786556 11.488918 0.873607 -8.377359 -0.636302 -2.926132 10.281964 -0.305406 -2.897735 3.673676 0.264620 0.431570 0.097710 -3.420512 -4.360815 -7.442151 8.684097 -8.476573 7.640187 -16.643878 -4.966310 11.413016 2.862603 -9.724287 -12.589997 -26.259418 15.466350 31.025491 5.762510 3.051860 -7.396980 -15.821309 -9.964631 1.493493 -43.079447 -24.445876 1.730670 13.138197 -35.185970 -6.060030 -3.625621 2.831941 0.656810 0.137630 -0.190820 0.369470 9.824462 12.582754 11.450072 32.178632 -7.852750 -4.280462 81.434544 52.475808 34.059008 1.756280 -2.023797 -0.351550 0.443660 -0.057220 -0.255460 
2.619850 17.176480 -0.546660 4.487537 -11.855248 -5.147685 -15.378261 12.503849 4.036007 14.663123 -6.737552 -2.612861 -36.061703 21.953104 31.188959 1.077305 11.379753 0.905625 0.684150 0.270710 0.395090 18.430505 -9.013885 2.714265 11.424404 0.300626 -6.224531 -0.816836 -3.191730 11.331300 -0.434894 -3.043561 3.603011 0.245510 0.299240 0.098080 -3.521975 -4.036687 -7.678813 9.252109 -7.717341 8.702467 -16.117779 -4.119723 11.163942 3.019328 -9.277866 -13.239620 -27.159962 16.719213 35.206003 5.481640 4.018730 -9.375200 -16.146595 -10.894134 1.818438 -42.978926 -23.313471 1.846053 9.259577 -30.251936 -4.315473 -3.559381 2.804434 0.737710 0.042350 -0.074330 0.339230 9.857979 13.506781 11.882105 35.016976 -7.382399 -5.520183 82.634561 53.704347 35.103231 1.843761 -1.934839 -0.300910 0.414870 -0.097350 -0.281990 
